<svg xmlns="http://www.w3.org/2000/svg" xmlns:xlink="http://www.w3.org/1999/xlink" width="128" height="128" viewBox="0 0 128 128">
  <defs>
    <clipPath id="clip-path">
      <rect id="Rectángulo_456267" data-name="Rectángulo 456267" width="128" height="128" fill="none"/>
    </clipPath>
  </defs>
  <g id="Grupo_1180112" data-name="Grupo 1180112" transform="translate(511.746 8527) rotate(180)">
    <path id="Trazado_999622" data-name="Trazado 999622" d="M59.07,0A59.07,59.07,0,1,1,0,59.07,59.071,59.071,0,0,1,59.07,0" transform="translate(388.676 8403.93)" fill="#fff"/>
    <g id="Grupo_1179902" data-name="Grupo 1179902" transform="translate(383.746 8399)">
      <g id="Grupo_1179905" data-name="Grupo 1179905" clip-path="url(#clip-path)">
        <path id="Trazado_999618" data-name="Trazado 999618" d="M64,0A64,64,0,1,1,0,64,64,64,0,0,1,64,0" fill="none"/>
        <path id="Trazado_999619" data-name="Trazado 999619" d="M5,59a5,5,0,1,1-5,5,5,5,0,0,1,5-5" transform="translate(0 0)" fill="#ae0000"/>
        <path id="Trazado_999620" data-name="Trazado 999620" d="M21,19a5,5,0,1,1-5,5,5,5,0,0,1,5-5" fill="#ae0000"/>
        <path id="Trazado_999621" data-name="Trazado 999621" d="M64,124A60.068,60.068,0,0,1,4,64H7A57,57,0,1,0,22.408,25.024L20.22,22.972A60,60,0,1,1,64,124" fill="#ae0000"/>
        <rect id="Rectángulo_456268" data-name="Rectángulo 456268" width="128" height="128" fill="none"/>
        <rect id="Rectángulo_456269" data-name="Rectángulo 456269" width="128" height="128" fill="none"/>
      </g>
    </g>
    <g id="complejidad-de-datos" transform="translate(481.356 8495.676) rotate(180)">
      <path id="Trazado_1030709" data-name="Trazado 1030709" d="M65.35,3.162A3.166,3.166,0,0,0,62.188,0H43.216a3.166,3.166,0,0,0-3.162,3.162V7.378a3.142,3.142,0,0,0,.822,2.108,3.133,3.133,0,0,0-.628,1.054h-4.41V4.216H21.081V10.54H16.865V4.216H2.108V18.973h6.78L8.869,19A9.49,9.49,0,0,0,0,28.459v1.405a9.449,9.449,0,0,0,1.043,4.279,4.2,4.2,0,0,0,3.173,6.964h.2a11.625,11.625,0,0,0,7.015,8.622,12.652,12.652,0,0,0-7.216,11.4V65.35H41.107V59.026h4.216V65.35H60.08V50.594H53.756V46.378H60.08V31.621H53.756V27.4h8.432a3.166,3.166,0,0,0,3.162-3.162V20.027a3.142,3.142,0,0,0-.822-2.108,3.137,3.137,0,0,0,.822-2.108V11.594a3.142,3.142,0,0,0-.822-2.108,3.142,3.142,0,0,0,.822-2.108Zm-23.189,0a1.055,1.055,0,0,1,1.054-1.054H62.188a1.055,1.055,0,0,1,1.054,1.054V7.378a1.055,1.055,0,0,1-1.054,1.054H43.216a1.055,1.055,0,0,1-1.054-1.054Zm21.081,8.432v4.216a1.055,1.055,0,0,1-1.054,1.054H43.216a1.055,1.055,0,0,1-1.054-1.054V11.594a1.055,1.055,0,0,1,1.054-1.054H62.188A1.055,1.055,0,0,1,63.242,11.594ZM33.729,6.324v10.54H27.3a13.613,13.613,0,0,0-4.107-1.725V6.324ZM21.081,12.648V14.81c-.349-.027-.7-.054-1.054-.054H16.865V12.648ZM4.216,6.324h10.54V14.91a8.592,8.592,0,0,0-4.114,1.954H4.216ZM2.108,28.459A7.379,7.379,0,0,1,15.39,24.032l.632.843,1.686-1.264-.632-.843a9.52,9.52,0,0,0-5.754-3.6,6.52,6.52,0,0,1,4.986-2.3h3.719a11.556,11.556,0,0,1,10.7,16.01,4.151,4.151,0,0,0-1.215-.2h0v-3.6l-6.246-6.246-.737.59A18.237,18.237,0,0,1,11.17,27.4H8l-3.78,3.78v1.49a4.157,4.157,0,0,0-1.43.267,7.358,7.358,0,0,1-.678-3.078Zm27.4,6.324a2.108,2.108,0,1,1,0,4.216h0Zm-27.4,2.108a2.11,2.11,0,0,1,2.108-2.108V39A2.11,2.11,0,0,1,2.108,36.891Zm13.7,11.594A9.5,9.5,0,0,1,6.324,39V32.058l2.544-2.544h2.3a20.372,20.372,0,0,0,11.924-3.875l4.31,4.31V39a9.486,9.486,0,0,1-9.486,9.487ZM13.22,53.8l-.58-2.318a10.472,10.472,0,0,1,3.765-.867Zm3.506,4.17H17l.753,5.27H15.973Zm.433-2.108h-.589l-.608-1.823.9-.9.9.9Zm.165-5.247a10.45,10.45,0,0,1,3.765.867l-.58,2.318Zm-11,10.517a10.525,10.525,0,0,1,4.415-8.561l1.338,5.352L14.3,55.707l.435,1.307-.89,6.228H6.324ZM27.4,63.242H19.888L19,57.014l.435-1.307,2.219,2.219,1.338-5.352A10.525,10.525,0,0,1,27.4,61.134Zm11.594,0H29.513V61.134a12.57,12.57,0,0,0-1.054-5.04V52.7H39Zm18.973,0H47.432V52.7h10.54Zm0-18.973H47.432V33.729h10.54ZM51.648,31.621H45.324V46.378h6.324v4.216H45.324v6.324H41.107V50.594H26.351v2.2a12.7,12.7,0,0,0-4.042-3.061,11.6,11.6,0,0,0,7.007-8.627h.2a4.207,4.207,0,0,0,3.03-7.135,13.563,13.563,0,0,0-2.652-15h5.946V12.648h4.216v3.162a3.142,3.142,0,0,0,.822,2.108,3.137,3.137,0,0,0-.822,2.108v4.216A3.166,3.166,0,0,0,43.216,27.4h8.432Zm11.594-7.378A1.055,1.055,0,0,1,62.188,25.3H43.216a1.055,1.055,0,0,1-1.054-1.054V20.027a1.055,1.055,0,0,1,1.054-1.054H62.188a1.055,1.055,0,0,1,1.054,1.054Z" fill="#12263f"/>
      <path id="Trazado_1030710" data-name="Trazado 1030710" d="M47,34h6.324v2.108H47Z" transform="translate(2.54 1.837)" fill="#12263f"/>
      <path id="Trazado_1030711" data-name="Trazado 1030711" d="M47,38h6.324v2.108H47Z" transform="translate(2.54 2.053)" fill="#12263f"/>
      <path id="Trazado_1030712" data-name="Trazado 1030712" d="M47,52h6.324v2.108H47Z" transform="translate(2.54 2.81)" fill="#12263f"/>
      <path id="Trazado_1030713" data-name="Trazado 1030713" d="M47,56h6.324v2.108H47Z" transform="translate(2.54 3.026)" fill="#12263f"/>
      <path id="Trazado_1030714" data-name="Trazado 1030714" d="M29,52h6.324v2.108H29Z" transform="translate(1.567 2.81)" fill="#12263f"/>
      <path id="Trazado_1030715" data-name="Trazado 1030715" d="M29,56h6.324v2.108H29Z" transform="translate(1.567 3.026)" fill="#12263f"/>
      <path id="Trazado_1030716" data-name="Trazado 1030716" d="M24,8h6.324v2.108H24Z" transform="translate(1.297 0.432)" fill="#12263f"/>
      <path id="Trazado_1030717" data-name="Trazado 1030717" d="M24,12h6.324v2.108H24Z" transform="translate(1.297 0.648)" fill="#12263f"/>
      <path id="Trazado_1030718" data-name="Trazado 1030718" d="M6,8h6.324v2.108H6Z" transform="translate(0.324 0.432)" fill="#12263f"/>
      <path id="Trazado_1030719" data-name="Trazado 1030719" d="M6,12h6.324v2.108H6Z" transform="translate(0.324 0.648)" fill="#12263f"/>
      <path id="Trazado_1030720" data-name="Trazado 1030720" d="M46,4h2.108V6.108H46Z" transform="translate(2.486 0.216)" fill="#12263f"/>
      <path id="Trazado_1030721" data-name="Trazado 1030721" d="M42,4h2.108V6.108H42Z" transform="translate(2.27 0.216)" fill="#12263f"/>
      <path id="Trazado_1030722" data-name="Trazado 1030722" d="M42,20h2.108v2.108H42Z" transform="translate(2.27 1.081)" fill="#12263f"/>
      <path id="Trazado_1030723" data-name="Trazado 1030723" d="M46,20h2.108v2.108H46Z" transform="translate(2.486 1.081)" fill="#12263f"/>
      <path id="Trazado_1030724" data-name="Trazado 1030724" d="M56,12h2.108v2.108H56Z" transform="translate(3.026 0.648)" fill="#12263f"/>
      <path id="Trazado_1030725" data-name="Trazado 1030725" d="M52,12h2.108v2.108H52Z" transform="translate(2.81 0.648)" fill="#12263f"/>
      <path id="Trazado_1030726" data-name="Trazado 1030726" d="M21.54,39.054V38H11v1.054a5.27,5.27,0,0,0,10.54,0Zm-5.27,3.162a3.168,3.168,0,0,1-2.982-2.108h5.964a3.168,3.168,0,0,1-2.982,2.108Z" transform="translate(0.594 2.053)" fill="#12263f"/>
      <path id="Trazado_1030727" data-name="Trazado 1030727" d="M13.324,34.216h2.108a4.216,4.216,0,1,0-8.432,0H9.108a2.108,2.108,0,0,1,4.216,0Z" transform="translate(0.378 1.621)" fill="#12263f"/>
      <path id="Trazado_1030728" data-name="Trazado 1030728" d="M21.216,32.108a2.11,2.11,0,0,1,2.108,2.108h2.108a4.216,4.216,0,1,0-8.432,0h2.108A2.11,2.11,0,0,1,21.216,32.108Z" transform="translate(0.919 1.621)" fill="#12263f"/>
    </g>
  </g>
</svg>
